<?xml version="1.0" encoding="UTF-8"?>
<svg width="752pt" height="752pt" version="1.1" viewBox="0 0 752 752" xmlns="http://www.w3.org/2000/svg">
 <path d="m290.18 174.73c-3.1523 0-6.1719 1.2578-8.3945 3.4922-4.5898 4.6172-4.5898 12.074 0 16.695l18.312 18.293c-18.734 17.035-31.695 40.289-35.609 66.551v-0.003907c-0.49609 3.4023 0.51172 6.8477 2.7539 9.4492 2.2461 2.6016 5.5117 4.0977 8.9492 4.1016h199.63c3.4375-0.003906 6.6992-1.5 8.9453-4.1016 2.2461-2.6016 3.25-6.0469 2.7539-9.4492-3.9023-26.18-16.789-49.371-35.426-66.391l18.477-18.453v0.003907c4.5938-4.6211 4.5938-12.078 0-16.695-2.2227-2.2344-5.2422-3.4922-8.3945-3.4922-3.1484 0-6.1719 1.2578-8.3945 3.4922l-20.973 20.973c-16.688-9.7344-36.109-15.309-56.816-15.309-20.602 0-39.91 5.5078-56.539 15.145l-20.883-20.812 0.003906 0.003906c-2.2227-2.2344-5.2422-3.4922-8.3945-3.4922zm83.988 32.859c0.60938-0.011719 1.2109 0 1.8281 0 39.312 0 68.711 27.055 80.68 62.043h-161.25c11.789-34.426 40.359-61.215 78.738-62.043zm-137.82 99.711c-21.523 0-39.242 17.625-39.242 39.148v85.488c0 21.523 17.719 39.242 39.242 39.242 3.1406-0.011719 6.1445-1.2695 8.3594-3.5 2.2109-2.2305 3.4453-5.2461 3.4336-8.3867-0.011719-6.5117-5.2812-11.789-11.793-11.816-8.8125 0-15.562-6.7266-15.562-15.539v-85.488c0-8.8125 6.75-15.469 15.562-15.469 3.1406-0.015625 6.1445-1.2734 8.3594-3.5039 2.2109-2.2266 3.4453-5.2422 3.4336-8.3828-0.023438-6.5039-5.2891-11.77-11.793-11.793zm38.801 0c-6.5391-0.027343-11.859 5.2539-11.883 11.793v177.52c0.023437 6.5391 5.3438 11.816 11.883 11.793h201.8c6.5039-0.027344 11.766-5.293 11.793-11.793v-177.52c-0.027344-6.5039-5.2891-11.77-11.793-11.793zm240.51 0h0.003906c-6.5039 0.023438-11.77 5.2891-11.793 11.793-0.011719 3.1406 1.2227 6.1562 3.4336 8.3828 2.2109 2.2305 5.2188 3.4883 8.3594 3.5039 8.8125 0 15.562 6.6562 15.562 15.469v85.488c0 8.8125-6.75 15.539-15.562 15.539-6.5117 0.027344-11.781 5.3047-11.793 11.816-0.011719 3.1406 1.2227 6.1562 3.4336 8.3867 2.2109 2.2305 5.2188 3.4883 8.3594 3.5 21.523 0 39.242-17.719 39.242-39.242v-85.488c0-21.523-17.719-39.148-39.242-39.148zm-228.72 23.68h178.12v153.73h-178.12zm8.6484 185.99v-0.003906c-3.1367-0.011719-6.1562 1.2227-8.3828 3.4375-2.2305 2.2109-3.4883 5.2148-3.5 8.3555v9.2734c0 21.523 17.719 39.242 39.242 39.242 21.523 0 39.242-17.719 39.242-39.242v-9.2734h-0.003906c-0.011719-3.1406-1.2695-6.1445-3.5-8.3555-2.2266-2.2148-5.2461-3.4492-8.3828-3.4375-6.5039 0.027344-11.77 5.293-11.797 11.793v9.2734c0 8.8125-6.75 15.562-15.562 15.562s-15.539-6.75-15.539-15.562v-9.2734c-0.023438-6.5117-5.3047-11.781-11.816-11.793zm106.12 0v-0.003906c-6.5117 0.011718-11.789 5.2812-11.816 11.793v9.2734c0 21.523 17.648 39.242 39.172 39.242 21.523 0 39.242-17.719 39.242-39.242v-9.2734c-0.023437-6.5117-5.3047-11.781-11.816-11.793-3.1406-0.011719-6.1562 1.2227-8.3867 3.4375-2.2266 2.2109-3.4883 5.2148-3.5 8.3555v9.2734c0 8.8125-6.7266 15.562-15.539 15.562s-15.469-6.75-15.469-15.562v-9.2734c-0.011719-3.1406-1.2734-6.1445-3.5-8.3555-2.2305-2.2148-5.2461-3.4492-8.3867-3.4375z"/>
</svg>
