<?xml version="1.0" encoding="UTF-8"?>
<svg width="752pt" height="752pt" version="1.1" viewBox="0 0 752 752" xmlns="http://www.w3.org/2000/svg">
 <g>
  <path d="m437.17 192.88h-173.84c-9.75 0.003907-19.102 3.8672-26.016 10.746-6.9141 6.875-10.828 16.207-10.883 25.957v292.83c0.023437 9.7578 3.9258 19.109 10.848 25.992 6.9219 6.8828 16.289 10.734 26.051 10.711h225.54c9.7305-0.015625 19.055-3.8906 25.938-10.77 6.8789-6.8789 10.75-16.207 10.766-25.934v-226.14zm51.699 349.27h-225.54c-5.2656 0.054687-10.336-2.0039-14.082-5.707-3.7422-3.707-5.8477-8.7578-5.8477-14.023v-292.83c0-5.2695 2.1055-10.316 5.8477-14.023 3.7461-3.707 8.8164-5.7617 14.082-5.7109h166.15l69.262 80.902-53.336 0.003906c-5.2344 0-10.254-2.0781-13.953-5.7812-3.7031-3.6992-5.7812-8.7188-5.7812-13.953v-41.438h-16.988v41.438c0.015624 9.75 3.8945 19.098 10.789 25.992s16.242 10.773 25.992 10.789h63.145v214.61c0 5.2305-2.082 10.25-5.7812 13.953-3.6992 3.6992-8.7188 5.7773-13.953 5.7773z"/>
  <path d="m398.7 436.19h12.035l2.1719-23.879h-12.039z"/>
  <path d="m462.82 347.79h-173.45c-7.5234 0.035156-14.73 3.0391-20.051 8.3633-5.3203 5.3203-8.3281 12.527-8.3633 20.051v97.676c0.042968 7.5039 3.0547 14.688 8.3789 19.977 5.3281 5.2891 12.531 8.25 20.035 8.2422h173.45c7.4844 0 14.66-2.9727 19.953-8.2656 5.293-5.293 8.2656-12.469 8.2656-19.953v-97.676c0.007812-7.5039-2.9531-14.711-8.2422-20.035-5.2891-5.3242-12.473-8.3398-19.977-8.3789zm-98.27 65.316h-15.391v-20.523c0-4.4141-3.5781-7.9922-7.9922-7.9922-4.4102 0-7.9883 3.5781-7.9883 7.9922v64.922-0.003906c0 4.4141 3.5781 7.9922 7.9883 7.9922 4.4141 0 7.9922-3.5781 7.9922-7.9922v-22.102h15.391v22.102c0.18359 6.1445-2.2852 12.074-6.7812 16.266-4.4961 4.1953-10.582 6.25-16.699 5.6367-6.0898 0.57031-12.129-1.5039-16.586-5.6953-4.4531-4.1914-6.8945-10.094-6.6992-16.207v-65.117c-0.11719-6.0742 2.3516-11.91 6.7969-16.055 4.4414-4.1406 10.438-6.1953 16.488-5.6523 6.0781-0.58203 12.117 1.4531 16.602 5.5977s6.9883 10.004 6.8789 16.109zm69.457-0.78906h-7.1055l-2.3672 23.875h6.5117l-0.19922 12.629h-7.4922l-2.9609 28.613h-13.812l2.7617-28.613h-12.035l-2.7617 28.613h-14.207l2.9609-28.613h-6.3125l0.19922-12.629h7.3008l2.3672-23.875h-6.7109l0.39453-12.629h7.5l2.7617-27.23h14.012l-2.7617 27.23h12.035l2.7617-27.23h14.012l-2.7617 27.23h6.1172z"/>
 </g>
</svg>
