<?xml version="1.0" encoding="UTF-8"?>
<svg width="752pt" height="752pt" version="1.1" viewBox="0 0 752 752" xmlns="http://www.w3.org/2000/svg">
 <path d="m491.61 306.36c20.062-13.305 33.41-34.617 36.629-58.473 3.2188-23.855-4.0078-47.941-19.828-66.086-15.816-18.148-38.691-28.59-62.766-28.656h-139.29c-24.07 0.066406-46.945 10.508-62.766 28.656-15.816 18.145-23.043 42.23-19.824 66.086 3.2188 23.855 16.566 45.168 36.625 58.473-23.34 15.484-37.375 41.633-37.375 69.645s14.035 54.16 37.375 69.645c-24.582 16.188-38.832 44.113-37.523 73.52 1.3086 29.402 17.992 55.949 43.914 69.887 25.926 13.938 57.27 13.211 82.52-1.9102 25.25-15.125 40.684-42.418 40.629-71.852v-76.609c15.633 13.141 35.301 20.516 55.715 20.895 24.074-0.066407 46.949-10.512 62.766-28.656 15.82-18.145 23.047-42.23 19.828-66.086-3.2188-23.859-16.566-45.168-36.629-58.477zm-101.68-125.36h55.715c19.906 0 38.301 10.621 48.254 27.859 9.9492 17.238 9.9492 38.477 0 55.715-9.9531 17.238-28.348 27.859-48.254 27.859h-55.715zm-139.29 55.719c0-14.777 5.8711-28.949 16.32-39.398 10.449-10.449 24.621-16.32 39.395-16.32h55.715v111.43l-55.715 0.003907c-14.773 0-28.945-5.8711-39.395-16.32-10.449-10.449-16.32-24.621-16.32-39.395zm0 139.29c0-14.773 5.8711-28.945 16.32-39.395 10.449-10.449 24.621-16.32 39.395-16.32h55.715v111.43l-55.715 0.003906c-14.773 0-28.945-5.8711-39.395-16.32-10.449-10.449-16.32-24.621-16.32-39.398zm111.43 139.29h0.003907c0 14.777-5.8711 28.949-16.32 39.398-10.449 10.449-24.621 16.316-39.398 16.316-14.773 0-28.945-5.8672-39.395-16.316-10.449-10.449-16.32-24.621-16.32-39.398 0-14.777 5.8711-28.945 16.32-39.395 10.449-10.449 24.621-16.32 39.395-16.32h55.715zm83.574-83.574v0.003906c-14.777 0-28.945-5.8711-39.395-16.32-10.449-10.449-16.32-24.621-16.32-39.398 0-14.773 5.8711-28.945 16.32-39.395s24.617-16.32 39.395-16.32c14.777 0 28.949 5.8711 39.398 16.32s16.316 24.621 16.316 39.395c0 14.777-5.8672 28.949-16.316 39.398-10.449 10.449-24.621 16.32-39.398 16.32z"/>
</svg>
