<?xml version="1.0" encoding="UTF-8"?>
<svg width="752pt" height="752pt" version="1.1" viewBox="0 0 752 752" xmlns="http://www.w3.org/2000/svg">
 <g>
  <path d="m376.32 460.2c-5.0508 0-10.102-1.3672-14.84-4.1055l-111.13-64.195c-9.3672-5.4727-14.84-14.734-14.84-25.68v-128.18c0-10.84 5.3672-20.207 14.84-25.574l111.13-64.195c9.3672-5.4727 20.207-5.4727 29.574 0l111.13 64.195c9.3672 5.4727 14.84 14.734 14.84 25.574v128.29c0 10.84-5.3672 20.207-14.84 25.68l-111.13 64.195c-4.6289 2.6289-9.6836 4-14.734 4zm0-305.52c-3.2617 0-6.418 0.84375-9.5781 2.6328l-111.13 64.195c-6.1055 3.5781-9.5781 9.3672-9.5781 16.523v128.29c0 7.0508 3.3672 12.945 9.5781 16.523l111.13 64.195c6.1055 3.5781 12.945 3.5781 19.047 0l111.13-64.09c6.1055-3.5781 9.5781-9.3672 9.5781-16.523l0.003906-128.39c0-7.0508-3.3672-12.945-9.5781-16.523l-111.13-64.195c-3.0508-1.6836-6.3164-2.6328-9.4727-2.6328z"/>
  <path d="m376.32 420.52c-0.94531 0-1.7891-0.21094-2.6328-0.73828l-97.98-56.516c-1.6836-0.94531-2.6328-2.6328-2.6328-4.5234l0.007813-113.13c0-1.8945 0.94531-3.5781 2.6328-4.5234l97.98-56.516c1.6836-0.94531 3.5781-0.94531 5.2617 0l97.98 56.516c1.5781 0.94531 2.6328 2.6328 2.6328 4.5234v113.03c0 1.8945-1.0508 3.5781-2.6328 4.5234l-97.98 56.516c-0.84766 0.63281-1.793 0.84375-2.6367 0.84375zm-92.715-64.828 92.715 53.461 92.715-53.461 0.003906-107.03-92.715-53.461-92.719 53.461z"/>
  <path d="m587.22 580.59h-421.91c-10.84 0-19.68-8.8398-19.68-19.68v-14.418c0-2.9453 2.3164-5.2617 5.2617-5.2617h450.74c2.9453 0 5.2617 2.3164 5.2617 5.2617v14.418c0.003907 10.84-8.8359 19.68-19.676 19.68zm-431.06-28.836v9.1562c0 5.0508 4.1055 9.1562 9.1562 9.1562h421.91c5.0508 0 9.1562-4.1055 9.1562-9.1562v-9.1562z"/>
  <path d="m558.38 609.32h-364.24c-10.84 0-19.68-8.8398-19.68-19.68v-14.418c0-2.9453 2.3164-5.2617 5.2617-5.2617 2.9453 0 5.2617 2.3164 5.2617 5.2617l0.003907 14.418c0 5.0508 4.1055 9.1562 9.1562 9.1562h364.34c5.0508 0 9.1562-4.1055 9.1562-9.1562v-14.418c0-2.9453 2.3164-5.2617 5.2617-5.2617s5.2617 2.3164 5.2617 5.2617v14.418c-0.10547 10.945-8.9453 19.68-19.785 19.68z"/>
  <path d="m562.49 551.75c-2.9453 0-5.2617-2.3164-5.2617-5.2617 0-2.9453 2.3164-5.2617 5.2617-5.2617 10.102 0 18.418-8.207 18.418-18.418l-0.003906-247.11c0-10.102-8.207-18.312-18.418-18.312h-50.723c-2.9453 0-5.2617-2.3164-5.2617-5.2617 0-2.9453 2.3164-5.2617 5.2617-5.2617h50.727c15.891 0 28.941 12.945 28.941 28.836v247.11c-0.10547 15.891-13.051 28.941-28.941 28.941zm-372.34 0c-15.891 0-28.941-12.945-28.941-28.941v-247.11c0-15.891 12.945-28.836 28.941-28.836h50.727c2.9453 0 5.2617 2.3164 5.2617 5.2617 0 2.9453-2.3164 5.2617-5.2617 5.2617h-50.727c-10.102 0-18.418 8.207-18.418 18.312v247.11c0 10.102 8.207 18.418 18.418 18.418 2.9453 0 5.2617 2.3164 5.2617 5.2617 0 2.9453-2.4219 5.2617-5.2617 5.2617z"/>
  <path d="m555.96 521.55h-359.29c-2.9453 0-5.2617-2.3164-5.2617-5.2617v-234.05c0-2.9453 2.3164-5.2617 5.2617-5.2617h44.199c2.9453 0 5.2617 2.3164 5.2617 5.2617v84.086c0 7.0508 3.3672 12.945 9.5781 16.523l111.13 64.09c6.1055 3.5781 12.945 3.5781 19.047 0l111.13-64.09c6.1055-3.5781 9.5781-9.3672 9.5781-16.523v-84.086c0-2.9453 2.3164-5.2617 5.2617-5.2617h44.199c2.9453 0 5.2617 2.3164 5.2617 5.2617v234.05c-0.10156 2.9492-2.5195 5.2617-5.3633 5.2617zm-354.03-10.523h348.77v-223.53h-33.676v78.824c0 10.84-5.3672 20.207-14.84 25.574l-111.13 64.195c-9.3672 5.4727-20.207 5.4727-29.574 0l-111.13-64.195c-9.3672-5.4727-14.84-14.734-14.84-25.68v-78.824h-33.676z"/>
  <path d="m378.95 307.39h-5.2617c-17.051 0-30.941-13.891-30.941-30.941v-25.68c0-2.9453 2.3164-5.2617 5.2617-5.2617 2.9453 0 5.2617 2.3164 5.2617 5.2617v25.68c0 11.262 9.1562 20.418 20.418 20.418h5.2617c11.262 0 20.418-9.1562 20.418-20.418v-25.68c0-2.9453 2.3164-5.2617 5.2617-5.2617 2.9453 0 5.2617 2.3164 5.2617 5.2617v25.68c0 17.152-13.895 30.941-30.941 30.941z"/>
  <path d="m404.62 358.74c-2.9453 0-5.2617-2.3164-5.2617-5.2617v-25.68c0-11.262-9.1562-20.418-20.418-20.418h-5.2617c-11.262 0-20.418 9.1562-20.418 20.418v25.68c0 2.9453-2.3164 5.2617-5.2617 5.2617-2.9453 0-5.2617-2.3164-5.2617-5.2617v-25.68c0-17.051 13.891-30.941 30.941-30.941h5.2617c17.051 0 30.941 13.891 30.941 30.941v25.68c0.003906 2.9453-2.418 5.2617-5.2617 5.2617z"/>
  <path d="m407.89 256.13h-63.145c-7.5781 0-13.785-6.2109-13.785-13.785 0-7.5781 6.2109-13.785 13.785-13.785h63.145c7.5781 0 13.785 6.2109 13.785 13.785 0 7.5742-6.2109 13.785-13.785 13.785zm-63.145-17.152c-1.7891 0-3.2617 1.4727-3.2617 3.2617 0 1.7891 1.4727 3.2617 3.2617 3.2617h63.145c1.7891 0 3.2617-1.4727 3.2617-3.2617 0-1.7891-1.4727-3.2617-3.2617-3.2617z"/>
  <path d="m407.89 375.89h-63.145c-7.5781 0-13.785-6.2109-13.785-13.785 0-7.5781 6.2109-13.785 13.785-13.785h63.145c7.5781 0 13.785 6.2109 13.785 13.785 0 7.5781-6.2109 13.785-13.785 13.785zm-63.145-17.152c-1.7891 0-3.2617 1.4727-3.2617 3.2617 0 1.7891 1.4727 3.2617 3.2617 3.2617h63.145c1.7891 0 3.2617-1.4727 3.2617-3.2617 0-1.7891-1.4727-3.2617-3.2617-3.2617z"/>
 </g>
</svg>
