<?xml version="1.0" encoding="UTF-8"?>
<svg width="752pt" height="752pt" version="1.1" viewBox="0 0 752 752" xmlns="http://www.w3.org/2000/svg">
 <g>
  <path d="m558.84 245.16c-0.097656-0.65234-0.13672-1.3203-0.39453-1.9336-0.41406-0.98828-1.0273-1.875-1.7773-2.625l-97.32-97.734c-0.73047-0.73047-1.5977-1.3203-2.5469-1.7148-0.94531-0.39453-1.9922-0.61328-3.0391-0.61328l-233.2-0.003906c-15.215 0-27.625 12.391-27.625 27.625v415.69c0 15.234 12.41 27.625 27.625 27.625h310.87c15.215 0 27.625-12.391 27.625-27.625v-337.61c0-0.39453-0.15625-0.72656-0.21484-1.082zm-97.184-77.609 70.484 70.801h-70.484zm-241.09-11.227h225.29v89.922c0 4.3594 3.5508 7.8945 7.8945 7.8945h89.508v63.656l-328.12-0.003907-6.4102-0.058593v-149.57c0-6.5312 5.3047-11.84 11.836-11.84zm322.71 331.86h-334.54v-154.68l334.53 0.058594-0.003906 154.62zm-11.84 107.5h-310.87c-6.5312 0-11.84-5.3086-11.84-11.84v-79.898h334.53v79.898c0.019532 6.5312-5.2891 11.84-11.82 11.84z"/>
  <path d="m266.57 438.73c3.4922 3.6289 8.4844 5.4453 14.977 5.4453 5.5234 0 9.9844-1.1641 13.359-3.4727s5.7031-5.3867 7.0039-9.2148c0.96875-2.9219 1.4414-7.125 1.4414-12.551v-41.617l-13.242 0.003907v42.484c0 5.3281-0.61328 8.8203-1.8359 10.516-1.2227 1.6953-3.3164 2.5273-6.2734 2.5273-2.9219 0-5.1094-1.1836-6.5508-3.5508-0.96875-1.5586-1.5195-4.2227-1.6562-7.9922l-12.512 1.4414c0.019531 7.0234 1.793 12.352 5.2891 15.98z"/>
  <path d="m330.3 428.69h26.285l5.7422 14.938h14.445l-26.324-65.75h-14.051l-25.613 65.75h14.09zm12.965-35.48 9.0586 24.41h-17.938z"/>
  <path d="m407.95 443.62 23.539-65.75h-14.09l-16.102 48.66-16.633-48.66h-14.406l23.504 65.75z"/>
  <path d="m438.85 443.62 5.4258-14.938h26.285l5.7422 14.938h14.445l-26.324-65.75h-14.031l-25.613 65.75zm18.395-50.418 9.0586 24.41h-17.938z"/>
 </g>
</svg>
