<?xml version="1.0" encoding="UTF-8"?>
<svg width="752pt" height="752pt" version="1.1" viewBox="0 0 752 752" xmlns="http://www.w3.org/2000/svg">
 <g>
  <path d="m549.68 297.07h-94.785v-94.742c-52.598-21.805-109.11-20.199-157.86 0v94.738h-94.715c-21.801 52.602-20.195 109.11 0 157.87h94.715v94.75c52.602 21.801 109.12 20.195 157.86 0v-94.746h94.781c21.797-52.613 20.195-109.12 0.003906-157.87zm-252.65 110.51v15.785h-72.328c-8.8242-31.082-8.8242-63.672 0-94.727h151.26v-31.574h-47.359v-72.348c15.414-4.3672 31.324-6.5781 47.453-6.5781 16.059 0 31.883 2.207 47.262 6.5703v119.72c0 8.7188-7.0742 15.785-15.785 15.785l-63.141-0.003906c-26.145 0.007812-47.363 21.207-47.363 47.367zm230.26 15.785h-151.32v31.574h47.359v72.359c-15.414 4.3633-31.309 6.5703-47.449 6.5703-16.051 0-31.883-2.207-47.262-6.5703v-119.72c0-8.7344 7.0703-15.789 15.785-15.789h63.137c26.145 0 47.359-21.199 47.359-47.359v-15.793h72.391c8.8203 31.074 8.8203 63.66 0 94.727z"/>
  <path d="m383.86 257.61c0 8.7188-7.0664 15.785-15.785 15.785s-15.785-7.0664-15.785-15.785 7.0664-15.785 15.785-15.785 15.785 7.0664 15.785 15.785"/>
  <path d="m399.64 494.4c0 8.7148-7.0664 15.781-15.781 15.781-8.7188 0-15.785-7.0664-15.785-15.781 0-8.7188 7.0664-15.785 15.785-15.785 8.7148 0 15.781 7.0664 15.781 15.785"/>
 </g>
</svg>
