<?xml version="1.0" encoding="UTF-8"?>
<svg width="752pt" height="752pt" version="1.1" viewBox="0 0 752 752" xmlns="http://www.w3.org/2000/svg">
 <g>
  <path d="m558.96 245.69c-0.058594-0.84766-0.17578-1.6953-0.49219-2.4844-0.41406-0.98828-1.0078-1.8555-1.7578-2.5859l-97.379-97.773c-0.73047-0.73047-1.5977-1.3203-2.5469-1.7148-0.94531-0.39453-1.9922-0.61328-3.0391-0.61328l-233.18-0.003906c-15.215 0-27.625 12.391-27.625 27.625v415.71c0 15.234 12.41 27.625 27.625 27.625h310.89c15.215 0 27.625-12.391 27.625-27.625v-337.61c0-0.19531-0.097656-0.35156-0.11719-0.55078zm-97.32-78.16 70.523 70.801h-70.523zm-252.91 0.63281c0-6.5312 5.3086-11.84 11.84-11.84h225.29v89.922c0 4.3594 3.5508 7.8945 7.8945 7.8945h89.527v63.637l-328.14-0.003907-6.4102-0.039062zm334.54 320.02h-334.54v-154.68l334.55 0.058594zm-11.84 107.5h-310.87c-6.5312 0-11.84-5.3086-11.84-11.84v-79.895h334.55v79.898c0 6.5273-5.3086 11.836-11.84 11.836z"/>
  <path d="m316.13 412.88c4.875 1.2031 7.9922 2.0508 9.3516 2.5273 2.0117 0.71094 3.4141 1.5391 4.2227 2.5078 0.80859 0.96875 1.2031 2.1328 1.2031 3.4922 0 2.1328-0.94531 4.0039-2.8594 5.5859-1.9141 1.5977-4.7539 2.3867-8.5234 2.3867-3.5508 0-6.375-0.88672-8.4844-2.6836-2.0898-1.7969-3.4922-4.5977-4.1641-8.4258l-11.387 1.1055c0.76953 6.4727 3.1172 11.406 7.043 14.801 3.9258 3.3945 9.5508 5.0703 16.871 5.0703 5.0312 0 9.2344-0.71094 12.609-2.1133 3.375-1.4023 5.9805-3.5703 7.832-6.4531 1.8555-2.9023 2.7617-6 2.7617-9.332 0-3.6719-0.76953-6.7305-2.3086-9.2344-1.5391-2.5078-3.6719-4.4609-6.3945-5.8789-2.7227-1.4414-6.9453-2.8203-12.629-4.1641s-9.2734-2.6445-10.754-3.8672c-1.1641-0.96875-1.7383-2.1523-1.7383-3.5117 0-1.5 0.61328-2.7031 1.8555-3.5898 1.9141-1.4023 4.5781-2.0898 7.9922-2.0898 3.2969 0 5.7617 0.65234 7.418 1.9531 1.6367 1.3008 2.7227 3.4531 3.2148 6.4141l11.703-0.51172c-0.17578-5.3281-2.1133-9.5703-5.7812-12.766-3.6719-3.1953-9.1562-4.7734-16.418-4.7734-4.4609 0-8.25 0.67188-11.406 2.0117-3.1562 1.3438-5.5664 3.2969-7.2422 5.8594-1.6758 2.5664-2.5078 5.3281-2.5078 8.2891 0 4.5781 1.7773 8.4648 5.3281 11.66 2.5156 2.2578 6.918 4.1719 13.191 5.7305z"/>
  <path d="m378.57 439.25c4.6172 0 8.8203-0.82812 12.609-2.4844 4.8164 3.2344 7.418 4.9531 7.793 5.1289 1.6758 0.92578 3.4141 1.6562 5.1719 2.1719l4.3008-8.2695c-3.375-1.2031-6.4922-2.8398-9.3711-4.8945 2.3086-2.7227 4.0039-5.5234 5.0508-8.4258 1.4023-3.7891 2.0898-8.1875 2.0898-13.199 0-9.4531-2.5273-16.812-7.5586-22.082-5.0312-5.25-11.84-7.8945-20.422-7.8945-8.6641 0-15.531 2.625-20.582 7.8945-5.0508 5.25-7.5977 12.609-7.5977 22.082 0 9.4922 2.5273 16.852 7.5781 22.102 5.0547 5.2461 12.039 7.8711 20.938 7.8711zm-11.996-44.953c2.9609-3.3164 6.8281-4.9727 11.602-4.9727s8.625 1.6562 11.582 4.9531c2.9609 3.3164 4.4219 8.3086 4.4219 14.996 0 3.2344-0.375 6.1172-1.125 8.625-0.75 2.5078-1.875 4.6367-3.375 6.3945-3.5117-2.625-7.1836-4.6172-11.031-5.918l-3.2773 6.6875c2.4453 0.86719 4.8555 2.0703 7.2422 3.6289-1.5 0.55078-3.0977 0.82812-4.7734 0.82812-4.5391 0-8.2891-1.6758-11.246-5.0312-2.9609-3.3555-4.4414-8.4258-4.4414-15.195-0.019532-6.668 1.4609-11.66 4.4219-14.996z"/>
  <path d="m456.51 428.49h-29.086v-47.711h-11.703v57.48h40.789z"/>
 </g>
</svg>
