<?xml version="1.0" encoding="UTF-8"?>
<svg width="752pt" height="752pt" version="1.1" viewBox="0 0 752 752" xmlns="http://www.w3.org/2000/svg">
 <g>
  <path d="m285.55 201.72c12.312-2.3672 21.312-12.785 21.312-25.574 0-14.68-11.84-26.52-26.52-26.52-14.68 0-26.52 11.84-26.52 26.52 0 12.785 8.9961 23.68 21.312 25.574v56.828l47.832 40.254v155.81l-47.832 40.254v56.828c-12.312 2.3672-21.312 12.785-21.312 25.574 0 14.68 11.84 26.52 26.52 26.52 14.68 0 26.52-11.84 26.52-26.52 0-12.785-8.9961-23.68-21.312-25.574v-52.094l47.832-41.195v-164.81l-47.832-40.254zm11.367 374.6c0 8.9961-7.1055 16.574-16.574 16.574-8.9961 0-16.574-7.1055-16.574-16.574 0-9.4727 7.1055-16.574 16.574-16.574s16.574 7.5781 16.574 16.574zm-32.68-400.65c0-8.9961 7.1055-16.574 16.574-16.574 8.9961 0 16.574 7.1055 16.574 16.574 0 9.4727-7.1055 16.574-16.574 16.574-8.9961 0.003906-16.574-7.5742-16.574-16.574z"/>
  <path d="m476.4 550.28v-56.828l-47.832-40.254v-154.86l47.832-40.254v-56.828c12.312-2.3672 21.312-12.785 21.312-25.574 0-14.68-11.84-26.52-26.52-26.52-14.68 0-26.52 11.84-26.52 26.52 0 12.785 8.9961 23.68 21.312 25.574v52.094l-47.363 40.25v164.8l47.832 40.254v52.094c-12.312 2.3672-21.312 12.785-21.312 25.574 0 14.68 11.84 26.52 26.52 26.52 14.68 0 26.52-11.84 26.52-26.52-0.47266-12.785-9.9453-23.676-21.781-26.047zm-21.312-374.6c0-8.9961 7.1055-16.574 16.574-16.574 9.4727 0 16.574 7.1055 16.574 16.574 0 9.4727-7.1055 16.574-16.574 16.574-9.4727 0.003906-16.574-7.5742-16.574-16.574zm16.102 416.75c-8.9961 0-16.574-7.1055-16.574-16.574 0-9.4727 7.1055-16.574 16.574-16.574 9.4727 0 16.574 7.1055 16.574 16.574s-7.5781 16.574-16.574 16.574z"/>
  <path d="m519.02 429.99c-5.6836 0-11.367 1.8945-15.629 5.2109l-26.992-21.312v-75.297l26.992-21.312c4.2617 3.3164 9.9453 5.2109 15.629 5.2109 14.68 0 26.52-11.84 26.52-26.52s-11.84-26.52-26.52-26.52c-14.68 0-26.52 11.84-26.52 26.52 0 5.2109 1.4219 9.4727 3.7891 13.734l-29.836 23.676v85.246l30.309 24.152c-2.3672 3.7891-3.7891 8.5234-3.7891 13.734 0 14.68 11.84 26.52 26.52 26.52 14.68 0 26.52-11.84 26.52-26.52-0.47266-14.684-12.312-26.523-26.992-26.523zm-16.102-134.02c0-8.9961 7.1055-16.574 16.574-16.574 9.4727 0 16.574 7.1055 16.574 16.574 0 8.9961-7.1055 16.574-16.574 16.574-3.3164 0-6.1562-0.94531-8.5234-2.3672l-5.2109-6.6289-0.47266 0.47266c-1.8945-2.8398-2.3672-5.207-2.3672-8.0508zm16.102 176.65c-8.9961 0-16.574-7.1055-16.574-16.574 0-2.8398 0.47266-5.2109 1.8945-7.5781l0.47266 0.47266 5.2109-6.6289c2.3672-1.4219 5.6836-2.3672 8.5234-2.3672 8.9961 0 16.574 7.1055 16.574 16.574 0.47266 8.5234-7.1055 16.102-16.102 16.102z"/>
  <path d="m254.77 441.83 30.781-23.207v-85.242l-30.781-23.207c2.8398-4.2617 4.2617-8.9961 4.2617-14.207 0-14.68-11.84-26.52-26.52-26.52-14.68 0-26.52 11.84-26.52 26.52 0 14.68 11.84 26.52 26.52 26.52 5.6836 0 10.891-1.8945 15.156-4.7344l27.941 20.836v75.301l-27.473 20.84c-4.2617-2.8398-9.4727-4.7344-15.156-4.7344-14.68 0-26.52 11.84-26.52 26.52 0 14.68 11.84 26.52 26.52 26.52 14.68 0 26.52-11.84 26.52-26.52-0.46875-5.6836-1.8906-10.422-4.7305-14.684zm-21.785-129.76c-8.9961 0-16.574-7.1055-16.574-16.574 0-8.9961 7.1055-16.574 16.574-16.574 9.4727 0 16.574 7.1055 16.574 16.574-0.47266 9.4727-7.5781 16.574-16.574 16.574zm0 160.55c-8.9961 0-16.574-7.1055-16.574-16.574 0-8.9961 7.1055-16.574 16.574-16.574 9.4727 0 16.574 7.1055 16.574 16.574-0.47266 8.9961-7.5781 16.574-16.574 16.574z"/>
  <path d="m402.52 255.71c0-14.68-11.84-26.52-26.52-26.52-14.68 0-26.52 11.84-26.52 26.52 0 12.785 8.9961 23.68 21.312 25.574v188.96c-12.312 2.3672-21.312 12.785-21.312 25.574 0 14.68 11.84 26.52 26.52 26.52 14.68 0 26.52-11.84 26.52-26.52 0-12.785-8.9961-23.68-21.312-25.574v-188.48c11.84-2.3672 21.312-13.258 21.312-26.047zm-43.098 0c0-8.9961 7.1055-16.574 16.574-16.574 8.9961 0 16.574 7.1055 16.574 16.574 0 8.9961-7.1055 16.574-16.574 16.574-8.9961 0.003906-16.574-7.5742-16.574-16.574zm33.152 240.58c0 8.9961-7.1055 16.574-16.574 16.574-8.9961 0-16.574-7.1055-16.574-16.574 0-9.4727 7.1055-16.574 16.574-16.574 8.9961 0 16.574 7.5781 16.574 16.574z"/>
 </g>
</svg>
