<?xml version="1.0" encoding="UTF-8"?>
<svg width="752pt" height="752pt" version="1.1" viewBox="0 0 752 752" xmlns="http://www.w3.org/2000/svg">
 <path d="m188.11 308.45c0-2.1562 0.85547-4.2188 2.3789-5.7422 1.5234-1.5234 3.5898-2.375 5.7422-2.375h4.3477c2.1875-0.054687 4.3047 0.77734 5.8711 2.3047 1.5664 1.5273 2.4492 3.625 2.4492 5.8125 0 2.1914-0.88281 4.2852-2.4492 5.8125-1.5664 1.5312-3.6836 2.3594-5.8711 2.3086h-4.3477c-4.4844 0-8.1211-3.6367-8.1211-8.1211zm60.648 21.281h242.36c2.1875 0.054688 4.3047-0.77734 5.8711-2.3086 1.5664-1.5273 2.4492-3.6211 2.4492-5.8125 0-2.1875-0.88281-4.2812-2.4492-5.8125-1.5664-1.5273-3.6836-2.3594-5.8711-2.3047h-242.36c-4.4062 0.10938-7.918 3.7109-7.918 8.1172s3.5117 8.0117 7.918 8.1211zm180.09 158.47h-105.68c-2.1875-0.054688-4.3047 0.77734-5.8711 2.3047-1.5664 1.5312-2.4492 3.625-2.4492 5.8164 0 2.1875 0.88281 4.2812 2.4492 5.8125 1.5664 1.5273 3.6836 2.3594 5.8711 2.3047h105.68c2.1875 0.054688 4.3047-0.77734 5.8711-2.3047 1.5664-1.5312 2.4492-3.625 2.4492-5.8125 0-2.1914-0.88281-4.2852-2.4492-5.8164-1.5664-1.5273-3.6836-2.3594-5.8711-2.3047zm117.21-118.18v79.859c0 4.4844 3.6328 8.1172 8.1172 8.1172 4.4805 0 8.1172-3.6328 8.1172-8.1172v-79.859c0-4.4805-3.6367-8.1172-8.1172-8.1172-4.4844 0-8.1172 3.6367-8.1172 8.1172zm-43.977-48.414c-0.003907-6.2461 2.7852-12.16 7.6055-16.133 4.8164-3.9688 11.16-5.5742 17.289-4.375 6.125 1.1992 11.395 5.0781 14.359 10.57 2.9688 5.4922 3.3203 12.027 0.96484 17.809l4.9453 4.9453c2.9258 3.2031 2.8164 8.1445-0.25391 11.211-3.0664 3.0703-8.0078 3.1797-11.211 0.25391l-4.9453-4.9492c-6.4375 2.6211-13.758 1.8672-19.527-2.0156-5.7656-3.8828-9.2188-10.383-9.2109-17.332zm16.238 0h-0.003906c0 1.8789 1.1328 3.5703 2.8711 4.293 1.7344 0.71875 3.7344 0.32031 5.0625-1.0078 1.3281-1.3281 1.7266-3.3281 1.0078-5.0625-0.71875-1.7383-2.4141-2.8711-4.293-2.8711-2.5664 0.003907-4.6445 2.082-4.6484 4.6484zm-322.08 21.281h4.3477c2.1875 0.054687 4.3047-0.77734 5.8711-2.3047 1.5664-1.5312 2.4492-3.625 2.4492-5.8164 0-2.1875-0.88281-4.2812-2.4492-5.8125-1.5664-1.5273-3.6836-2.3594-5.8711-2.3047h-4.3477c-2.1875-0.054688-4.3047 0.77734-5.8711 2.3047-1.5664 1.5312-2.4492 3.625-2.4492 5.8125 0 2.1914 0.88281 4.2852 2.4492 5.8164 1.5664 1.5273 3.6836 2.3594 5.8711 2.3047zm367.9-98.703h-4.3477v-0.003906c-2.1875-0.050782-4.3047 0.77734-5.8711 2.3086-1.5664 1.5273-2.4531 3.6211-2.4531 5.8125 0 2.1875 0.88672 4.2852 2.4531 5.8125 1.5664 1.5273 3.6836 2.3594 5.8711 2.3047h4.3477c4.4023-0.10938 7.918-3.7109 7.918-8.1172s-3.5156-8.0117-7.918-8.1211zm43.68 2.2461v259.14c-0.007813 7.6953-3.0703 15.074-8.5117 20.516s-12.82 8.5039-20.52 8.5117h-405.55c-7.6953-0.007812-15.074-3.0703-20.516-8.5117-5.4414-5.4414-8.5039-12.82-8.5117-20.516v-259.14c0.007813-7.6953 3.0703-15.074 8.5117-20.516 5.4414-5.4453 12.82-8.5039 20.516-8.5117h405.55c7.6992 0.007812 15.078 3.0664 20.52 8.5117 5.4414 5.4414 8.5039 12.82 8.5117 20.516zm-16.238 40.793h-431.14v218.35-0.003906c0.007812 7.0625 5.7266 12.789 12.789 12.797h405.55c7.0625-0.007812 12.785-5.7344 12.793-12.797zm0-40.793c-0.007812-7.0625-5.7305-12.785-12.793-12.797h-405.55c-7.0625 0.011719-12.781 5.7344-12.789 12.797v24.555h431.14zm-390.99-2.2383h-4.3477c-2.1875-0.054687-4.3047 0.77734-5.8711 2.3047s-2.4492 3.625-2.4492 5.8125c0 2.1914 0.88281 4.2852 2.4492 5.8125 1.5664 1.5312 3.6836 2.3594 5.8711 2.3047h4.3477c2.1875 0.054688 4.3047-0.77344 5.8711-2.3047 1.5664-1.5273 2.4492-3.6211 2.4492-5.8125 0-2.1875-0.88281-4.2852-2.4492-5.8125-1.5664-1.5273-3.6836-2.3594-5.8711-2.3047zm289.56 0h-4.3477c-4.4062 0.10938-7.9219 3.7109-7.9219 8.1172s3.5156 8.0117 7.9219 8.1172h4.3672c4.4062-0.10547 7.918-3.7109 7.918-8.1172s-3.5117-8.0078-7.918-8.1172zm36.984 0h-4.3516c-4.4062 0.10938-7.9219 3.7109-7.9219 8.1172s3.5156 8.0117 7.9219 8.1172h4.3516c4.4023-0.10547 7.918-3.7109 7.918-8.1172s-3.5156-8.0078-7.918-8.1172z"/>
</svg>
