<?xml version="1.0" encoding="UTF-8"?>
<svg width="752pt" height="752pt" version="1.1" viewBox="0 0 752 752" xmlns="http://www.w3.org/2000/svg">
 <path d="m497.55 228.2c-80.746-13.418-163.15-13.418-243.89 0-46.176 9.6719-74.984 39.465-74.984 78.34v138.13c0 39.465 28.809 68.867 75.773 78.93 40.164 6.7617 80.82 10.195 121.55 10.262 40.859-0.011719 81.645-3.375 121.95-10.066 45.781-8.6836 75.379-39.465 75.379-78.93v-138.13c0-39.266-29.602-70.047-75.773-78.535zm-57.223 156.68-98.664 59.199c-1.543 0.94141-3.3242 1.4219-5.1328 1.3828-1.7109-0.015626-3.3984-0.41797-4.9336-1.1836-3.1562-1.918-5.043-5.3867-4.9297-9.0781v-118.39c0.027344-3.5547 1.8945-6.8398 4.9297-8.6836 3.1445-1.6836 6.9219-1.6836 10.066 0l98.664 59.199h-0.003906c2.8984 1.8477 4.6523 5.0469 4.6523 8.4844s-1.7539 6.6367-4.6523 8.4844z"/>
</svg>
