<?xml version="1.0" encoding="UTF-8"?>
<svg width="752pt" height="752pt" version="1.1" viewBox="0 0 752 752" xmlns="http://www.w3.org/2000/svg">
 <path transform="matrix(4.7358 0 0 4.7358 139.21 139.21)" d="m28.5 27.5h43c6.0749 0 11 6.0749 11 11v23c0 6.0749-4.9251 11-11 11h-43c-6.0749 0-11-6.0749-11-11v-23c0-6.0749 4.9251-11 11-11zm0 0" fill="none" stroke="#000" stroke-linecap="round" stroke-linejoin="round" stroke-width="3"/>
 <path d="m418.62 367.57c3.1602 1.6211 5.1523 4.875 5.1523 8.4297s-1.9922 6.8125-5.1523 8.4297l-29.602 15.25-32.395 16.621 0.003906 0.003907c-2.9297 1.4961-6.4219 1.3633-9.2344-0.34375-2.8086-1.707-4.5312-4.7539-4.5469-8.0391v-63.84c0-3.2969 1.7148-6.3555 4.5273-8.0742 2.8125-1.7227 6.3164-1.8555 9.2539-0.35547l32.391 16.672z"/>
</svg>
